<svg xmlns="http://www.w3.org/2000/svg">
    <symbol id="initial" fill="currentColor">
        <path fill="#000"
              d="M12 6H9v3h3V6ZM15 6h-3v3h3V6ZM9 9H6v3h3V9ZM9 12H6v3h3v-3ZM9 15H6v3h3v-3ZM18 6h-3v3h3V6ZM12 18H9v3h3v-3ZM15 21h-3v3h3v-3ZM18 24h-3v3h3v-3ZM27 6h3v3h-3V6ZM24 6h3v3h-3V6ZM30 9h3v3h-3V9ZM30 12h3v3h-3v-3ZM30 15h3v3h-3v-3ZM21 6h3v3h-3V6ZM27 18h3v3h-3v-3ZM24 21h3v3h-3v-3ZM21 24h3v3h-3v-3ZM21 9h-3v3h3V9ZM21 27h-3v3h3v-3Z"/>
    </symbol>
    <symbol id="big" fill="currentColor">
        <path fill="red"
              d="M12 6H9v3h3V6ZM9 6H6v3h3V6ZM12 9H9v3h3V9ZM15 12h-3v3h3v-3ZM18 9h-3v3h3V9ZM15 6h-3v3h3V6ZM9 9H6v3h3V9ZM9 12H6v3h3v-3ZM9 15H6v3h3v-3ZM6 9H3v3h3V9ZM6 12H3v3h3v-3ZM6 15H3v3h3v-3ZM18 6h-3v3h3V6ZM12 15H9v3h3v-3ZM12 18H9v3h3v-3ZM15 15h-3v3h3v-3ZM15 18h-3v3h3v-3ZM15 21h-3v3h3v-3ZM18 15h-3v3h3v-3ZM18 12h-3v3h3v-3ZM18 21h-3v3h3v-3ZM18 18h-3v3h3v-3ZM18 24h-3v3h3v-3ZM27 6h3v3h-3V6ZM30 6h3v3h-3V6ZM27 9h3v3h-3V9ZM24 9h3v3h-3V9ZM27 12h3v3h-3v-3ZM24 12h3v3h-3v-3ZM21 9h3v3h-3V9ZM24 6h3v3h-3V6ZM30 9h3v3h-3V9ZM33 9h3v3h-3V9ZM33 12h3v3h-3v-3ZM33 15h3v3h-3v-3ZM30 12h3v3h-3v-3ZM30 15h3v3h-3v-3ZM21 6h3v3h-3V6ZM12 3H9v3h3V3ZM15 3h-3v3h3V3ZM18 3h-3v3h3V3ZM27 3h3v3h-3V3ZM24 3h3v3h-3V3ZM21 3h3v3h-3V3ZM27 15h3v3h-3v-3ZM27 18h3v3h-3v-3ZM24 15h3v3h-3v-3ZM24 18h3v3h-3v-3ZM24 21h3v3h-3v-3ZM21 15h3v3h-3v-3ZM21 12h3v3h-3v-3ZM21 21h3v3h-3v-3ZM21 18h3v3h-3v-3ZM21 24h3v3h-3v-3ZM21 9h-3v3h3V9ZM21 6h-3v3h3V6ZM21 15h-3v3h3v-3ZM21 12h-3v3h3v-3ZM21 21h-3v3h3v-3ZM21 18h-3v3h3v-3ZM21 24h-3v3h3v-3ZM21 27h-3v3h3v-3ZM21 30h-3v3h3v-3ZM30 18h3v3h-3v-3ZM27 21h3v3h-3v-3ZM24 24h3v3h-3v-3ZM24 27h-3v3h3v-3ZM9 18H6v3h3v-3ZM12 21H9v3h3v-3ZM15 24h-3v3h3v-3ZM18 27h-3v3h3v-3Z"/>
    </symbol>
</svg>